<svg xmlns="http://www.w3.org/2000/svg" fill="#FFC100" viewBox="0 0 96 66.25" x="0px" y="0px"><path fill-rule="evenodd" d="M8.09742474,35.4688035 C7.61358487,35.8349516 6.91779629,35.6893227 6.62140564,35.159872 L3.93124504,30.354365 L0.449358908,28.0276274 C0.106427439,27.7984667 -0.0606280701,27.3822691 0.0286988179,26.9796063 L1.68855578,19.4973949 C1.85515917,18.7463893 2.77190692,18.4568707 3.3396229,18.9759705 L4.375404,19.9230528 L4.375404,19.7139701 C4.375404,19.4326652 4.49388708,19.1643699 4.7017965,18.9748808 L9.82642423,14.3042844 C10.0606011,14.0908552 10.3820689,14.0010323 10.6929613,14.0621611 L16.7998005,15.2629102 C16.9287979,15.2882741 17.0515281,15.3388253 17.1609683,15.411671 L21.7644319,18.4758336 L24.1279288,16.5774903 C24.413816,16.3478678 24.8024486,16.2931301 25.1406387,16.4348533 L30.466813,18.6668595 L33.9903779,17.8495465 L34.1216299,17.1012048 L30.97396,15.9859589 C30.3452828,15.7632133 30.1067211,14.9991261 30.4969819,14.4582499 L32.7851326,11.2870204 L32.7851326,6.76891541 C32.7851326,6.2939185 33.1192732,5.88446448 33.5846239,5.78922348 L43.158919,3.82970006 L51.9613965,0.263529509 C52.1355122,0.192989543 52.3259769,0.172922166 52.5109705,0.20562635 L57.1415486,1.02424552 C57.6192667,1.10869917 57.9674625,1.52385016 57.9674625,2.00897595 L57.9674625,4.86563347 L64.2914785,6.7633312 L68.2488129,4.72097519 C68.6235382,4.52758174 69.0793097,4.59003687 69.3881963,4.87710681 L73.2126652,8.43145328 C73.2925472,8.50569326 73.3597477,8.59249992 73.4116049,8.68843502 L78.2374691,17.616211 L85.4312312,16.9353259 C85.7396129,16.9061378 86.0441119,17.0215081 86.2557277,17.247716 L89.9459809,21.1924325 L92.6760655,21.1924325 C92.9822118,21.1924325 93.2714905,21.3326682 93.4611241,21.573011 L95.6086075,24.2947448 C95.9495587,24.7268684 95.8771869,25.3532851 95.4466841,25.6962804 L91.6328625,28.7348735 L90.4676191,32.509436 C90.3242281,32.9739212 89.8675813,33.2680041 89.3853859,33.2063999 L85.4942958,32.7092827 L84.2045227,37.8079066 C84.1136056,38.1673124 83.8313163,38.4469274 83.4710614,38.5344194 L78.9280342,39.6377451 L80.271977,44.2055736 C80.360446,44.5062643 80.3028139,44.8310394 80.116288,45.0829316 L78.4762358,47.297725 C78.2643023,47.5839288 77.9161504,47.7358241 77.5621971,47.6965114 L67.3322112,46.5602932 C67.2815485,46.5546662 66.4110825,46.2562385 64.7208131,45.6650101 L63.3569401,47.3351392 C63.1118338,47.6352838 62.7153872,47.7668017 62.3394836,47.6726719 L58.3423807,46.6717597 L52.2994062,52.5440399 C52.0571076,52.7794943 51.7123014,52.8766822 51.3827062,52.8024231 L46.8463348,51.7803601 C46.4723005,51.6960886 46.1793792,51.4053783 46.0922764,51.0319932 L44.9246186,46.026577 L43.0272713,43.7686983 L36.4861365,44.484059 C36.2132531,44.5139025 35.9401005,44.4302555 35.7307196,44.2527291 L28.2645868,37.9224704 L23.9373621,39.6104843 L23.3833943,50.265999 C23.3399439,51.1017634 22.3503505,51.5176167 21.722946,50.9637634 L18.3035335,47.9452119 L14.4871191,50.3226016 C13.7236606,50.798189 12.7694386,50.1026836 12.9884854,49.2302899 L13.5973114,46.8055291 L11.0035637,45.1310542 C10.8614258,45.0392927 10.7448926,44.9129689 10.6648705,44.7639057 L8.43602673,40.6120708 C8.22558659,40.2200681 8.29944254,39.736178 8.61723942,39.4248 L12.0515001,36.0599038 C12.3297061,35.7873169 12.7408694,35.7010646 13.105166,35.8388698 L17.4069673,37.4661437 L17.4069673,36.947495 L16.6068708,36.947495 C16.1525145,36.947495 15.7552661,36.6411873 15.6397373,36.201764 L14.8696383,33.2726288 L11.7930126,32.67215 L8.09742474,35.4688035 Z M7.80585674,33.18132 L10.942498,30.807652 C11.1692691,30.6360419 11.4583806,30.5691014 11.7374997,30.6235783 L15.8687491,31.4298927 C16.2453922,31.5034038 16.5467469,31.7859672 16.6443226,32.1571045 L17.3779442,34.947495 L18.4069673,34.947495 C18.959252,34.947495 19.4069673,35.3952102 19.4069673,35.947495 L19.4069673,38.9135766 C19.4069673,39.6130023 18.707343,40.0963576 18.0531578,39.8488942 L12.9949718,37.935497 L10.5533774,40.3277766 L12.3050115,43.5906772 L15.2840886,45.5139136 C15.6440054,45.7462691 15.8159346,46.1820718 15.7116066,46.5975773 L15.5312559,47.3158569 L17.8782274,45.853839 C18.2533679,45.6201497 18.7374238,45.6604428 19.0687643,45.9529399 L21.4936368,48.0935423 L21.9735917,38.8616579 C21.994003,38.4690485 22.2425647,38.1248255 22.6088237,37.981951 L28.0931495,35.8425616 C28.4353212,35.7090833 28.8231269,35.7739208 29.1032705,36.0114443 L36.6961495,42.4491665 L43.3406281,41.7225037 C43.6723248,41.6862282 44.0002613,41.8177841 44.2149264,42.0732396 L46.6097023,44.9230677 C46.7108862,45.0434784 46.7822414,45.1860581 46.8179721,45.3392254 L47.8975504,49.9670696 L51.2939805,50.7322992 L57.3480456,44.8492417 C57.596398,44.6079044 57.951934,44.5122366 58.2878605,44.5963557 L62.2094257,45.5783526 L63.6165066,43.8553133 C63.8833464,43.5285549 64.3265463,43.4044029 64.724302,43.5449905 L67.6673554,44.5852187 L77.2112575,45.6452353 L78.212833,44.2926669 L76.7132466,39.1958326 C76.5520548,38.6479699 76.8816326,38.0766002 77.4365845,37.9418239 L82.4133999,36.7331478 L83.7726637,31.3598192 C83.8966858,30.8695453 84.367214,30.5490332 84.8688539,30.6131217 L88.8046675,31.1159526 L89.8128754,27.8500742 C89.8721781,27.6579753 89.988006,27.4882115 90.1452455,27.3629337 L93.4219976,24.7522411 L92.1912883,23.1924325 L89.5121137,23.1924325 C89.2353329,23.1924325 88.9709311,23.0777172 88.7818454,22.875593 L85.1307245,18.9727072 L77.766814,19.6696968 C77.3672252,19.7075176 76.9837425,19.5027574 76.7928808,19.1496662 L71.7305048,9.78434687 L68.5414907,6.8205729 L64.8496719,8.72589794 C64.6193544,8.84476341 64.351883,8.86956336 64.1036373,8.79507028 L56.6800461,6.56741432 C56.2570966,6.44049648 55.9674625,6.05119035 55.9674625,5.60960858 L55.9674625,2.84769677 L52.4459089,2.22513708 L43.8248312,5.71781669 L34.7851326,7.58497942 L34.7851326,11.6101247 C34.7851326,11.8201814 34.7189857,12.0249044 34.5960765,12.1952486 L32.8996291,14.5464155 L35.5866479,15.4984488 C36.0468022,15.6614854 36.3219825,16.132944 36.2376471,16.6137875 L35.8459804,18.8468997 C35.7766643,19.2421096 35.4778379,19.5576197 35.0869726,19.6482834 L30.6041276,20.6881073 C30.3995953,20.7355499 30.1853186,20.7174104 29.9916721,20.6362602 L24.9164338,18.5094123 L22.4460289,20.4936232 C22.1061566,20.7666062 21.6286086,20.7879683 21.2657198,20.5464219 L16.2185454,17.1869159 L10.8013509,16.1217673 L6.375404,20.1555846 L6.375404,22.1924325 C6.375404,23.0619425 5.34230084,23.5171784 4.70060281,22.930432 L3.26649126,21.6191302 L2.12939936,26.7448502 L5.2421237,28.8248989 C5.37336933,28.9126026 5.48198833,29.0301307 5.55909534,29.167869 L7.80585674,33.18132 Z"/></svg>