<svg id="Layer_1" data-name="Layer 1"
	xmlns="http://www.w3.org/2000/svg" viewBox="0 0 213.7 213.7">
	<defs>
		<style>.cls-1{fill: transparent;}.cls-2{fill:#39718d; fill-rule:evenodd;}</style>
	</defs>
	<title>Abai_small_white_back</title>
	<rect class="cls-1" width="213.7" height="213.7"/>
	<path class="cls-2 " d="M100.71,103.22c-2.95,1.77-4.16,4.53-5,7.06-1.45-6-.51-10,5.06-13-1.57,2.09-1.83,3.63-1.68,4.87a5.84,5.84,0,0,1,3.51-1.94l1,1.29,3.11-1.68,2.71,1.12,1.25-1a5.85,5.85,0,0,1,4.54,2.69,5.91,5.91,0,0,0-5.89-6.06c-1.41,1-4.83,1-6.06-.59-2.56,1.12-3.11.38-4.52-1.4,6-3.91,4.36.16,9.49-1.87l-1.65-16a31.21,31.21,0,0,1,9.56-5,15.49,15.49,0,0,1,4.7-.46,13.81,13.81,0,0,0-1.86-8.72c-6.51-3.11-25.6-4.09-34.62,3.65a28.87,28.87,0,0,0-.52,11.49c-4.18,6-2,10-1.08,17.46C81,96,80,95.61,79,92a4.4,4.4,0,0,0,1-1c-.18-.94-.77-2.75-1-3.73a3.35,3.35,0,0,0-1.87,1.82c-.78,2.24,2.78,8.75,4.5,10.36,2.4,0,3.33.15,3.63,1.87,1.55,7.38,1.76,7.64,6.45,13.3a10,10,0,0,1,4-3.66c-.86,4.16.09,9.57,4.54,14.7a18.65,18.65,0,0,1,2.17-9.33c.26,5.61,1.13,7.5,3.76,11.1a17.76,17.76,0,0,0,.18-18.42h-1.15c-1.41.8-2.76,3.48-3.18,5.41a7.07,7.07,0,0,1,.24-9l10.58-.5a1.77,1.77,0,0,0-1.36-2.29l-10.74.57ZM97,86.7c1.59-1.61,2.78-2.87,3.23-4.66-1.9,1.46-2.84,1.07-5.25,1.29-.76-1.15-1.8-1-2.06.28l-3.61,0L94,79.84a14.41,14.41,0,0,1,5.86-.72l0-1.18-6.61-2.28-5.75,1.41a19.44,19.44,0,0,1,5.66-3.76c2.88-.21,9.16,1.19,11,3.67-.15,1.51-.16,3.3-.37,5-1.13,1.68-2,3-6.76,4.77ZM120.5,99.76c-2.12-2.78-3.85-7.12-7.41-7.72a34.22,34.22,0,0,1-2.78-9.46L113,81.09c1.44,1.6,3.73,1.23,5.53,1,0-.41.32-1,.78-.85a.67.67,0,0,1,.36.87,3,3,0,0,1-1.53,1.52c.85.78,3.88.81,5.21.08,1.57,1.34,1.46,5.8.83,7.21-4.26,2.53-4.25,8-3.63,8.88ZM115,124.38c-6-3.24-.24-8.69-3.27-14.37,7.44,3,4.22,8.85,3.27,14.37ZM75,89.57c-.13-1.92,1.2-4.24,3.51-5.64C79,77.52,79,72.82,79,67.8a34.89,34.89,0,0,1,0-9.92c10.71-15.49,40.72-14.74,48.82-.78a27.8,27.8,0,0,1,.8,7.33c.82,6.82,1.26,11.87,1.77,16.76,4,1.73,3.06,4.4,2.61,9-.35,3.48-1.53,6.77-4.63,8.53a43,43,0,0,1-.73,5.17c3.89,3.19,7.62,7,11.5,10.2L155.72,125l-19.38,22.77L94.83,167.26l40.83-35.36-7.82-9.79,4.24,9.46c-11,8.87-25.41,19.37-36.39,28.23l19-27.3c-15.76,2.69-22.31-1-24.93-15.56l-12.49,35.2-2-25,9-6.67L73,126.4l-1.28,23.73L58,124.83l27.65-13.1c-1.84-3.32-2.22-5.62-3.12-9.61-3,.48-7.25-8-7.53-12.55Zm35-9.63a9.07,9.07,0,0,1,6.3-5.25,8.84,8.84,0,0,1,4,1.41,10.75,10.75,0,0,1-.11,1.54c-3.11,0-4.62-.09-6.19.38A28.59,28.59,0,0,0,110,79.94Z"/>
</svg>