<svg xmlns="http://www.w3.org/2000/svg" viewBox="0 0 94 63.75" x="0px" y="0px"><polygon fill="#FFC100" fill-rule="evenodd" points="2168.489 1089.481 2165.682 1084.466 2162 1082.006 2163.66 1074.524 2166.37 1077.002 2166.37 1074.524 2171.495 1069.853 2177.602 1071.054 2182.815 1074.524 2185.749 1072.167 2191.373 1074.524 2195.856 1073.484 2196.248 1071.251 2192.303 1069.853 2194.78 1066.42 2194.78 1061.579 2204.444 1059.601 2213.332 1056 2217.963 1056.819 2217.963 1060.419 2225.386 1062.647 2229.702 1060.419 2233.527 1063.974 2238.668 1073.484 2246.52 1072.741 2250.507 1077.002 2253.671 1077.002 2255.819 1079.724 2251.763 1082.955 2250.507 1087.024 2245.737 1086.415 2244.23 1092.372 2238.668 1093.723 2240.308 1099.297 2238.668 1101.512 2228.438 1100.376 2225.386 1099.297 2223.577 1101.512 2219.04 1100.376 2212.598 1106.637 2208.061 1105.614 2206.839 1100.376 2204.444 1097.526 2197.372 1098.3 2189.452 1091.584 2183.967 1093.723 2183.38 1105.024 2179.402 1101.512 2174.953 1104.283 2175.737 1101.164 2172.541 1099.101 2170.312 1094.949 2173.746 1091.584 2179.402 1093.723 2179.402 1090.757 2177.602 1090.757 2176.672 1087.221 2172.541 1086.415" transform="translate(-2162 -1056)"/></svg>