<svg xmlns="http://www.w3.org/2000/svg"
	xmlns:xlink="http://www.w3.org/1999/xlink" viewBox="0 0 100 125" version="1.1" x="0px" y="0px">
	<title>ornament35</title>
	<desc>Created with Sketch.</desc>
	<g stroke="none" stroke-width="1" fill="none" fill-rule="evenodd">
		<g fill="#EDEDED">
			<path d="M50,7.77777778 C56.1542146,12.6717858 57.9969447,20.0761854 55.5281902,29.9909765 C58.9197765,27.4797319 63.3226002,26.2241096 68.7366613,26.2241096 C76.8577529,26.2241096 93.7317159,33.7354326 94.7303022,54.210188 C95.3960264,67.8600249 97.1525924,80.5192733 100,92.1879331 C90.5441979,84.3508131 85.0437166,77.7653142 83.498556,72.4314365 C81.9533955,67.0975587 80.7623723,60.6048059 79.9254867,52.9531781 C77.2884495,55.9344867 74.3348435,57.2559057 71.0646688,56.9174352 C66.1594068,56.4097295 61.3866946,51.8387537 61.3866946,46.3924797 C61.3866946,42.7616304 62.7956972,40.0596066 65.6137026,38.2864081 C66.1076045,42.8666651 67.5875404,45.1567936 70.0535103,45.1567936 C73.7524651,45.1567936 75,43.2835814 75,39.5490495 C75,35.8145177 70.5741806,32.5171336 65.6137026,32.5171336 C60.6532246,32.5171336 54.1557485,34.992134 54.1557485,48.7685357 C54.1557485,57.9528035 60.1414192,72.4373657 72.1127608,92.2222222 C62.1653473,86.0616742 54.7944271,76.3797847 50,63.1765538 C45.2055729,76.3797847 37.8346527,86.0616742 27.8872392,92.2222222 C39.8585808,72.4373657 45.8442515,57.9528035 45.8442515,48.7685357 C45.8442515,34.992134 39.3467754,32.5171336 34.3862974,32.5171336 C29.4258194,32.5171336 25,35.8145177 25,39.5490495 C25,43.2835814 26.2475349,45.1567936 29.9464897,45.1567936 C32.4124596,45.1567936 33.8923955,42.8666651 34.3862974,38.2864081 C37.2043028,40.0596066 38.6133054,42.7616304 38.6133054,46.3924797 C38.6133054,51.8387537 33.8405932,56.4097295 28.9353312,56.9174352 C25.6651565,57.2559057 22.7115505,55.9344867 20.0745133,52.9531781 C19.2376277,60.6048059 18.0466045,67.0975587 16.501444,72.4314365 C14.9562834,77.7653142 9.45580206,84.3508131 0,92.1879331 C2.84740763,80.5192733 4.60397356,67.8600249 5.26969779,54.210188 C6.26828413,33.7354326 23.1422471,26.2241096 31.2633387,26.2241096 C36.6773998,26.2241096 41.0802235,27.4797319 44.4718098,29.9909765 C42.0030553,20.0761854 43.8457854,12.6717858 50,7.77777778 Z"/>
		</g>
	</g>
</svg>